<svg xmlns="http://www.w3.org/2000/svg" xmlns:xlink="http://www.w3.org/1999/xlink" width="2000" zoomAndPan="magnify" viewBox="0 0 1500 1499.999933" height="2000" preserveAspectRatio="xMidYMid meet" version="1.0"><defs><g/><clipPath id="d07d33cf26"><rect x="0" width="1500" y="0" height="1500"/></clipPath><clipPath id="dc797dcc8f"><path d="M 579.398438 750 L 850.898438 750 L 850.898438 1018.5 L 579.398438 1018.5 Z M 579.398438 750 " clip-rule="nonzero"/></clipPath></defs><g transform="matrix(1, 0, 0, 1, 0, 0.000000000000112861)"><g clip-path="url(#d07d33cf26)"><g fill="#ff713c" fill-opacity="1"><g transform="translate(125.588736, 1467.742486)"><g><path d="M 16.21875 -786.109375 C 36.019531 -833.234375 58.847656 -879.085938 84.703125 -923.671875 C 110.003906 -967.617188 140.160156 -1009.25 175.171875 -1048.5625 C 190.472656 -1066.007812 205.5625 -1082.269531 220.4375 -1097.34375 C 315.113281 -1194.019531 425.648438 -1263.832031 552.046875 -1306.78125 C 660.628906 -1343.882812 766.765625 -1351.15625 870.453125 -1328.59375 C 920.503906 -1317.78125 970.757812 -1294.945312 1021.21875 -1260.09375 C 1071.6875 -1225.21875 1110.695312 -1185.773438 1138.25 -1141.765625 C 1156 -1112.992188 1169.789062 -1081.894531 1179.625 -1048.46875 C 1188.875 -1015 1196.34375 -981.710938 1202.03125 -948.609375 C 1218.96875 -833.992188 1215.304688 -728.898438 1191.046875 -633.328125 C 1176.015625 -575.941406 1152.410156 -519.46875 1120.234375 -463.90625 C 1087.492188 -407.71875 1053.207031 -357.300781 1017.375 -312.65625 C 963.625 -245.6875 901.328125 -188.140625 830.484375 -140.015625 C 759.046875 -91.859375 680.628906 -60.566406 595.234375 -46.140625 C 509.140625 -33.441406 424.8125 -38.484375 342.25 -61.265625 C 279.445312 -78.265625 220.457031 -104.335938 165.28125 -139.484375 C 109.570312 -174.015625 65.429688 -220.164062 32.859375 -277.9375 C 1.597656 -333.445312 -18.328125 -399.6875 -26.921875 -476.65625 C -38.347656 -588.101562 -23.96875 -691.253906 16.21875 -786.109375 Z M 371.5 -621.78125 C 375.226562 -565.050781 410.96875 -508.363281 478.71875 -451.71875 C 545.875 -395.050781 610.84375 -385.222656 673.625 -422.234375 C 714.34375 -446.066406 737.875 -476.691406 744.21875 -514.109375 C 750.570312 -551.523438 746.289062 -590.007812 731.375 -629.5625 C 713.75 -674.226562 684.363281 -710.179688 643.21875 -737.421875 C 602.101562 -764.085938 560.90625 -778.710938 519.625 -781.296875 C 477.75 -783.828125 441.769531 -772.65625 411.6875 -747.78125 C 381.050781 -722.269531 367.65625 -680.269531 371.5 -621.78125 Z M 371.5 -621.78125 "/></g></g></g></g></g><g clip-path="url(#dc797dcc8f)"><path fill="#f6d636" d="M 579.664062 889.148438 C 582.421875 887.335938 585.679688 886.878906 588.761719 886.078125 C 594.8125 884.445312 601.089844 883.742188 607.023438 881.636719 C 616.316406 878.371094 625.820312 875.496094 634.738281 871.296875 C 644.65625 866.730469 654.125 861.363281 663.140625 855.195312 C 667.15625 852.484375 670.929688 849.46875 674.457031 846.148438 C 681.132812 839.777344 686.6875 832.542969 691.117188 824.441406 C 695.714844 815.867188 698.4375 806.65625 701.421875 797.527344 C 704.820312 786.839844 707.664062 776.003906 709.949219 765.027344 C 710.714844 761.449219 710.992188 757.757812 711.578125 754.148438 C 711.894531 752.714844 712.621094 751.539062 713.765625 750.621094 C 714.546875 749.949219 715.394531 750.441406 715.964844 751.765625 C 717.519531 755.238281 718.765625 758.820312 719.699219 762.511719 C 722.371094 772.179688 725.40625 781.75 728.84375 791.15625 C 731.539062 798.167969 734.707031 804.957031 738.351562 811.523438 C 740.304688 815.199219 752.304688 835.90625 754.851562 839.042969 C 757.910156 842.917969 761.359375 846.414062 765.191406 849.523438 C 769.027344 852.636719 773.15625 855.289062 777.578125 857.480469 C 782.125 859.664062 786.839844 861.40625 791.710938 862.707031 C 798.234375 864.535156 804.753906 866.890625 811.277344 868.816406 C 819.542969 871.3125 827.945312 873.1875 836.484375 874.449219 C 840.828125 875.210938 845.105469 876.242188 849.3125 877.554688 C 850.488281 877.898438 850.699219 878.746094 849.917969 879.691406 C 849.28125 880.328125 848.53125 880.769531 847.667969 881.015625 C 844.648438 882.132812 841.566406 883.035156 838.421875 883.726562 C 829.832031 886.023438 821.472656 888.980469 813.347656 892.59375 C 802.117188 897.351562 791.746094 903.550781 782.238281 911.199219 C 778.980469 913.859375 775.457031 916.359375 772.050781 918.921875 C 766.996094 922.726562 763.277344 927.695312 759.480469 932.691406 C 744.804688 951.226562 728.8125 1010.449219 727.851562 1015.28125 C 727.746094 1015.792969 727.59375 1016.289062 727.394531 1016.769531 C 727.117188 1017.421875 726.871094 1018.402344 726.105469 1018.402344 C 725.699219 1018.3125 725.339844 1018.132812 725.019531 1017.871094 C 724.699219 1017.605469 724.460938 1017.28125 724.296875 1016.898438 C 718.933594 1006.316406 713.09375 995.960938 706.933594 985.867188 C 701.273438 976.589844 695.878906 967.117188 689.78125 958.105469 C 684.382812 949.9375 678.546875 942.097656 672.269531 934.585938 C 667.960938 929.542969 663.171875 925 657.914062 920.960938 C 652.652344 916.921875 647.03125 913.46875 641.046875 910.609375 C 632.824219 906.648438 624.320312 903.4375 615.53125 900.972656 C 608.035156 898.949219 600.597656 896.351562 593.050781 894.246094 C 589.542969 893.265625 586.121094 891.730469 582.320312 891.828125 C 581.296875 891.859375 580.480469 890.960938 579.664062 890.324219 Z M 579.664062 889.148438 " fill-opacity="1" fill-rule="nonzero"/></g></svg>